<svg xmlns="http://www.w3.org/2000/svg" xmlns:xlink="http://www.w3.org/1999/xlink" width="24" height="24" viewBox="0 0 24 24">
    <defs>
        <path id="a" d="M0 0h22.286v23.4H0z"/>
    </defs>
    <g fill="none" fill-rule="evenodd">
        <path d="M-3-3h30v30H-3z"/>
        <g transform="translate(.857)">
            <mask id="b" fill="#fff">
                <use xlink:href="#a"/>
            </mask>
            <path fill="#D13233" d="M14.249 7.129c.006-1.708-1.389-3.119-3.089-3.125-1.715-.006-3.112 1.383-3.129 3.111-.016 1.71 1.386 3.126 3.105 3.135 1.711.009 3.106-1.39 3.113-3.121M11.157 20.3c-.07-.089-.11-.149-.159-.198a32.09 32.09 0 0 1-3.654-4.336c-.07-.101-.138-.17-.282-.169-.979.009-1.958.007-2.937.002-.136-.001-.187.042-.227.174-.583 1.969-1.173 3.935-1.76 5.902-.015.05-.022.104-.032.157h18.083c-.003-.038 0-.06-.007-.079-.599-2.008-1.2-4.015-1.794-6.024-.04-.133-.12-.128-.22-.128-1.007.001-2.014.004-3.02-.003-.143 0-.224.048-.308.16-.707.933-1.405 1.873-2.137 2.786-.477.594-1.005 1.146-1.546 1.756m11.129 3.1H0l2.787-9.359h3.435c-.115-.203-.22-.382-.32-.563-.822-1.495-1.506-3.045-1.803-4.74-.258-1.475-.19-2.924.41-4.32a6.673 6.673 0 0 1 1.236-1.895c1.17-1.27 2.591-2.117 4.3-2.408 2.485-.423 4.598.326 6.333 2.147 1.128 1.184 1.741 2.62 1.915 4.239.114 1.068-.045 2.116-.344 3.143-.41 1.412-1.042 2.724-1.763 3.997l-.224.39h3.534l2.79 9.369" mask="url(#b)"/>
        </g>
    </g>
</svg>
