<svg xmlns="http://www.w3.org/2000/svg" width="125" height="125" viewBox="0 0 125 125">
    <g fill="none" fill-rule="evenodd">
        <rect width="125" height="125" fill="#081B33" rx="15"/>
        <g stroke="#FFF" stroke-linecap="round" stroke-linejoin="round">
            <path stroke-width="3.3" d="M72.147 39.222c-2.874-2.57-5.651-2.846-8.755-2.873-.013 0-.025-.003-.037-.003h-1.478c-.012 0-.024.003-.037.003-3.103.027-5.88.304-8.754 2.873-9.112 11.39-39.209.871-43.086 9.507 9.51 5.279 30.95 2.938 38.309 4.62 2.574 1.617 5.083 3.965 7.69 6.323 1.918 1.736 4.249 2.637 6.597 2.692.006 0 .013-.003.02-.003l.021.003c2.347-.055 4.679-.956 6.597-2.692 2.607-2.358 5.116-4.706 7.69-6.322 7.36-1.683 28.72-.41 38.308-4.621-3.876-8.636-33.974 1.883-43.085-9.507zM68.867 36.345v-3.011c0-1.53-1.35-2.77-3.014-2.77h-6.069c-1.664 0-3.014 1.24-3.014 2.77v3.011M63.06 24.782V19v11.564zM48.4 71.773l-11.964 34.563M76.317 71.773l11.964 34.563"/>
            <path stroke-dasharray="2,6" stroke-width="3" d="M63.023 106.639V70.592"/>
        </g>
    </g>
</svg>
