<svg xmlns="http://www.w3.org/2000/svg" width="125" height="125" viewBox="0 0 125 125">
    <g fill="none" fill-rule="evenodd">
        <rect width="125" height="125" fill="#081B33" rx="15"/>
        <path fill="#FFF" d="M59.563 41.125c-.329-.146-.44-.21-.56-.247-4.939-1.517-9.882-3.024-14.818-4.55-2.396-.742-4.778-1.586-7.34-1.297-.892.1-1.761.421-2.64.642 5.09 3.334 10.147 6.416 15.22 9.469.254.153.707.18.978.063 3.008-1.312 5.998-2.664 9.16-4.08m46.409-6.435c-.839-.673-1.334-1.147-1.9-1.51-2.138-1.376-4.526-1.952-7.03-2.073-3.694-.177-7.135.817-10.473 2.314-18.308 8.214-36.632 16.39-54.92 24.647-2.417 1.09-4.492.908-6.561-.651-2.706-2.04-5.435-4.05-8.161-6.062-1.031-.76-1.906-.807-2.867-.179 2.287 5.15 4.58 10.304 6.86 15.462.464 1.05 1.287 1.7 2.362 1.838 1.507.196 3.045.357 4.555.27 3.954-.229 7.745-1.319 11.497-2.516 6.797-2.169 13.286-5.108 19.783-8.026 1.408-.633 2.824-1.25 4.386-1.94L57.522 88.27l.294.184c.685-.47 1.429-.872 2.043-1.42 1.562-1.395 2.531-3.21 3.395-5.09 4.833-10.52 9.665-21.04 14.533-31.542.234-.504.736-.993 1.235-1.246 6.47-3.282 12.994-6.454 19.429-9.802 2.523-1.313 4.856-2.995 7.52-4.663m-60.55 12.757c-2.354-1.435-4.602-2.804-6.849-4.175-2.472-1.51-4.96-2.995-7.405-4.547-.646-.41-1.269-.946-1.717-1.561-1.06-1.452-.585-3.191.958-4.083 4.007-2.316 8.193-2.69 12.593-1.322 7.043 2.19 14.103 4.321 21.148 6.508.768.238 1.409.193 2.142-.136 6.97-3.13 13.9-6.357 20.952-9.292 5.402-2.247 10.998-2.53 16.549-.32 2.212.879 4.177 2.149 5.497 4.209 1.019 1.589.988 2.96-.386 4.23-1.496 1.384-3.087 2.759-4.856 3.734-5.838 3.218-11.77 6.264-17.677 9.352-1.44.753-2.949 1.375-4.38 2.146-.467.251-.93.712-1.153 1.191-4.774 10.293-9.481 20.617-14.29 30.894-.792 1.692-1.913 3.254-3.035 4.76-1.677 2.252-4.246 3.185-6.739 4.12-1.715.643-3.473-.65-3.45-2.612.02-1.744.368-3.495.685-5.221 1.297-7.06 2.639-14.112 3.961-21.167.054-.284.075-.573.133-1.038-.409.171-.717.297-1.023.43-7.068 3.072-14.14 6.137-21.654 7.989-3.515.866-7.062 1.534-10.708 1.265-2.283-.17-4.461-.702-6.09-2.462-.583-.631-1.06-1.41-1.416-2.199-2.213-4.903-4.259-9.886-6.594-14.728-1.829-3.79.658-6.447 4.187-6.673 1.659-.107 3.132.333 4.468 1.345 2.623 1.986 5.292 3.912 7.905 5.911.982.751 1.847.875 3.025.325 4.655-2.173 9.362-4.233 14.05-6.336.353-.158.702-.322 1.169-.537"/>
        <path stroke="#FFF" stroke-linecap="square" stroke-width="3" d="M15.5 105.5h94"/>
    </g>
</svg>
