<svg xmlns="http://www.w3.org/2000/svg" width="125" height="125" viewBox="0 0 125 125">
    <g fill="none" fill-rule="evenodd">
        <rect width="125" height="125" fill="#081B33" rx="15"/>
        <path fill="#FFF" d="M33.415 20.019c8.18.014 14.56 4.956 16.45 12.892.941 3.954.275 7.766-1.636 11.345-.284.53-.333.913-.032 1.48 2.809 5.263 2.73 10.549-.022 15.805-.259.494-.245.826.005 1.3 2.76 5.261 2.794 10.543.038 15.818-.233.445-.387.784-.095 1.308 5.956 10.675-1.18 24.103-14.221 24.4-3.298.076-6.6.047-9.898-.017-.573-.012-1.295-.306-1.658-.723-.288-.331-.353-1.188-.118-1.558.285-.448.984-.874 1.514-.886 3.266-.08 6.534-.03 9.801-.046 2.546-.012 4.95-.58 7.143-1.92 5.825-3.553 7.955-10.789 4.948-17.021-2.382 2.348-5.098 3.921-8.283 4.578-2.41.496-4.807.685-7.108-.581-2.985-1.642-4.53-4.807-3.939-8.252.54-3.137 3.267-5.804 6.534-6.174 3.86-.437 7.343.697 10.493 2.901.807.565 1.553 1.217 2.328 1.83 1.81-3.466 1.823-7.72.002-11.448-.69.566-1.34 1.157-2.047 1.67-3.197 2.317-6.748 3.55-10.716 3.105-2.896-.327-4.978-1.958-6.108-4.646-1.1-2.613-.813-5.133.846-7.464 1.685-2.369 4.03-3.375 6.878-3.26 4.066.164 7.585 1.672 10.576 4.426.162.15.333.29.568.493 1.828-3.875 1.81-7.676.05-11.489-1.106.82-2.153 1.7-3.297 2.426-2.692 1.709-5.659 2.519-8.852 2.396-4.034-.155-7.281-3.478-7.403-7.531-.117-3.93 2.897-7.42 6.861-7.825 3.8-.389 7.211.743 10.306 2.9.808.564 1.553 1.217 2.328 1.828 2.582-4.757 1.436-11.174-2.627-15.08-2.662-2.56-5.833-3.732-9.48-3.739-3.075-.005-6.15 0-9.225-.003-.32 0-.643 0-.957-.049-.85-.128-1.335-.684-1.361-1.496-.025-.802.403-1.41 1.238-1.602.338-.077.697-.088 1.047-.089 3.043-.006 6.086-.008 9.129-.002zm68.436-.003c.864-.002 1.611.21 1.913 1.12.375 1.136-.336 2.078-1.642 2.11-1.793.041-3.588-.013-5.381.02-2.302.041-4.627-.057-6.9.23-6.785.856-11.828 7.567-10.916 14.369.126.946.373 1.88.617 2.806.128.485.37.94.617 1.552 2.392-2.332 5.046-3.886 8.155-4.578 3.075-.684 6.058-.66 8.656 1.472 2.411 1.979 3.271 5.352 2.22 8.562-.88 2.686-3.755 4.875-6.68 5.014-4.375.206-8.162-1.273-11.449-4.117-.218-.188-.426-.388-.642-.578-.047-.04-.112-.06-.168-.088-1.83 2.52-1.915 8.516-.13 11.22 1.633-1.048 3.191-2.235 4.908-3.11 2.552-1.299 5.307-1.866 8.193-1.44 3.066.453 5.66 2.968 6.304 6.079.65 3.15-.808 6.428-3.527 8.107-2.497 1.542-5.144 1.338-7.807.739-3.072-.691-5.691-2.255-7.932-4.462-1.878 2.745-1.895 8.416-.144 11.303 1.626-1.046 3.19-2.214 4.896-3.11 2.484-1.304 5.196-1.86 7.996-1.466 2.922.41 5.06 2.051 6.103 4.808 1.088 2.875.673 5.644-1.419 7.978-2.057 2.295-4.737 2.878-7.704 2.487-3.573-.472-6.673-1.934-9.299-4.404-.136-.128-.293-.233-.496-.392-.867 1.52-1.2 3.134-1.326 4.794-.578 7.648 5.37 13.999 13.214 14.093 3.17.038 6.342.005 9.513.009.351 0 .793-.095 1.034.077.454.323.949.748 1.138 1.241.24.622-.006 1.29-.687 1.613-.336.16-.728.295-1.094.293-3.906-.02-7.825.116-11.716-.152-8.615-.596-15.396-8.778-14.638-17.37.22-2.499.88-4.832 2.124-7.013.134-.234.112-.675-.02-.922-2.908-5.457-2.923-10.886.06-16.32.114-.21.074-.6-.046-.826-2.874-5.414-2.955-10.819-.03-16.246.141-.263.135-.74-.01-1.004-6.074-11.056 1.532-24.251 14.148-24.484 3.33-.061 6.663-.008 9.994-.014zM57.457 33.62c.435.377.765 1.11.777 1.699.07 3.392.035 6.787.035 10.181v43.517c-.014 1.326-.615 2.085-1.634 2.062-.988-.023-1.62-.857-1.62-2.117V35.457c0-.757.08-1.568.866-1.875.47-.183 1.261-.234 1.576.04zm12.52.006c.431.38.755 1.117.764 1.706.065 4.002.034 8.004.034 12.006V88.45c0 .256.007.513-.002.769-.038 1.136-.601 1.81-1.545 1.853-.928.042-1.63-.711-1.69-1.836-.018-.351.005-.704.005-1.056 0-17.578-.001-35.156-.003-52.733 0-.764.071-1.569.86-1.872.47-.181 1.263-.223 1.577.052zm12.109 45.658c2.187 2.906 6.588 4.88 10.168 4.6 2.363-.184 4.176-2.104 4.195-4.443.02-2.337-1.75-4.346-4.126-4.486-4.108-.243-7.427 1.456-10.237 4.329zm-48.73-4.323c-2.174.145-3.91 2.119-3.956 4.338-.045 2.216 1.597 4.352 3.753 4.52 4.263.335 7.774-1.286 10.672-4.462-2.903-3.012-6.294-4.675-10.47-4.396zm48.68-12.811c2.617 2.91 6.162 4.557 9.761 4.573 2.501.011 4.45-1.797 4.64-4.305.166-2.177-1.657-4.524-3.82-4.672-4.235-.29-7.7 1.368-10.582 4.404zm-49.273-4.302a4.54 4.54 0 0 0-3.328 5.05c.325 2.217 2.365 3.908 4.71 3.813 3.825-.155 7.072-1.596 9.666-4.517-2.418-2.658-5.393-4.17-8.96-4.478-.689-.06-1.426-.046-2.088.132zm.692-17.27c-2.567.193-4.21 2.264-4.041 4.81.151 2.302 2.225 4.168 4.63 4.105 3.838-.101 7.081-1.535 9.789-4.535-2.894-2.966-6.232-4.693-10.378-4.38zm48.574 4.366c2.679 3.033 5.933 4.438 9.762 4.547 2.514.072 4.464-1.76 4.646-4.279.156-2.165-1.515-4.371-3.65-4.604-4.306-.468-7.753 1.274-10.758 4.336z"/>
    </g>
</svg>
